<svg xmlns="http://www.w3.org/2000/svg" fill="none" viewBox="0 0 499 438">
  <path fill="#99A9D2" d="M111.291-.00006h89.777c2.338.22177 4.183.58865 5.536 1.10066 7.823 2.96769 13.117 8.9292 15.882 17.8844 43.526 141.07 78.448 241.306 121.936 382.392 3.023 9.262 2.182 17.539-2.523 24.831-1.821 2.817-3.907 5.11-6.257 6.877-3.198 2.41-6.835 3.823-10.911 4.237-1.982.202-3.963.279-5.945.23-2.872-.066-4.325-.098-4.361-.098H236.4c-3.646.085-6.122.034-7.427-.152-9.138-1.301-15.59-6.519-19.358-15.653-.593-1.445-1.254-3.384-1.984-5.817-73.003-243.7-101.692-327.2497-103.237-332.3339a4896.19706 4896.19706 0 0 1-14.258-47.8565c-.9671-3.3134-1.5159-5.9272-1.6465-7.8415-.3589-5.3615.7343-10.3576 3.2796-14.9885C96.1182 4.89338 102.625.62283 111.291-.00006ZM263.151.50977c28.367.00326 56.735.00489 85.105.00489 2.957 0 5.832.52831 8.624 1.58494 5.417 2.05456 9.613 5.56687 12.589 10.5369 1.002 1.673 2.238 4.6277 3.706 8.864 36.169 104.3915 54.294 156.7185 54.374 156.9825 2.548 8.424 1.805 16.026-2.229 22.806-1.644 2.762-3.676 5.11-6.097 7.044-3.411 2.726-7.229 4.386-11.454 4.98-1.127.16-4.092.24-8.895.24h-81.545c-7.046.287-13.177-2.105-18.392-7.177-1.83-1.774-3.349-3.791-4.557-6.051-.706-1.317-1.622-3.704-2.75-7.161-33.558-102.6826-50.727-155.1993-51.508-157.5507-2.07-6.2321-2.061-12.2556.027-18.0703 2.133-5.9321 5.767-10.45702 10.902-13.57473 3.801-2.30567 7.834-3.4585 12.1-3.4585ZM62.0944 189.689h46.7066c4.883.711 8.212 3.452 9.986 8.223.587 1.585.844 3.297.769 5.136-.041 1.011-.332 2.686-.872 5.024-9.193 39.715-18.492 79.712-27.8964 119.991a.57772.57772 0 0 0-.0048.235c.0146.077.0449.15.0888.212.0438.062.0999.113.164.147.0641.035.1345.052.2059.052 10.6415.036 21.4265.046 32.3555.029 1.694-.003 3.179.041 4.454.133 1.644.117 3.075.485 4.295 1.105 4.699 2.391 7.048 6.829 7.048 13.316v79.491c-.038 2.091-.113 3.395-.222 3.914-1.312 6.261-4.871 9.849-10.68 10.762-.828.13-2.93.16-6.306.088-2.643-.059-4.743-.088-6.301-.088H11.3473c-5.64545-.819-9.19205-3.803-10.63976-8.952C.23584 426.834 0 423.807 0 419.428v-89.379c0-.694.11867-1.363.356-2.005 15.6104-42.066 31.243-84.118 46.8979-126.155 1.0501-2.821 1.8363-4.732 2.3584-5.733 1.4804-2.828 3.5036-4.739 6.0697-5.733 1.2668-.489 3.4042-.734 6.4124-.734ZM339.577 224.314h80.099c3.836.065 7.276.931 10.319 2.598 4.643 2.547 8.156 6.287 10.538 11.221.469.975 1.581 3.997 3.337 9.065 17.785 51.357 35.567 102.716 53.346 154.077 1.525 4.213 2.072 8.486 1.642 12.816-.308 3.138-1.185 6.229-2.63 9.275-3.515 7.413-9.057 11.918-16.625 13.516-1.883.398-4.837.589-8.859.573-34.143-.16-61.326-.194-81.55-.103-3.085.013-5.493-.093-7.222-.318-4.699-.616-8.844-2.599-12.433-5.948-2.59-2.414-4.575-5.331-5.954-8.752-.73-1.81-1.399-3.649-2.007-5.518-33.47-102.565-50.417-154.411-50.841-155.54-2.162-5.72-2.612-11.43-1.348-17.131.691-3.124 1.93-6.061 3.716-8.81 4.257-6.561 10.116-10.204 17.577-10.928.655-.062 3.621-.093 8.895-.093Z"/>
</svg>